<svg width="48" height="42" viewBox="0 0 48 42" fill="none" xmlns="http://www.w3.org/2000/svg">
<g opacity="0.8">
<path d="M1 21C1 9.95431 9.95431 1 21 1H47V41H21C9.95431 41 1 32.0457 1 21Z" fill="#1D1C1F"/>
<path d="M47.5 1V0.5H47H21C9.67816 0.5 0.5 9.67816 0.5 21C0.5 32.3218 9.67816 41.5 21 41.5H47H47.5V41V1Z" stroke="white" stroke-opacity="0.5"/>
</g>
<path d="M23 27.8454L24.2162 29C24.5405 28.5876 32 21 32 21C32 21 24.7838 13.6598 24.2162 13L23.0811 14.1546L29.7297 21L23 27.8454Z" fill="white"/>
</svg>
